<svg width="581" height="248" xmlns="http://www.w3.org/2000/svg" xmlns:xlink="http://www.w3.org/1999/xlink" overflow="hidden"><defs><clipPath id="clip0"><rect x="352" y="249" width="581" height="248"/></clipPath><linearGradient x1="654.016" y1="246.693" x2="607.696" y2="509.387" gradientUnits="userSpaceOnUse" spreadMethod="reflect" id="fill1"><stop offset="0" stop-color="#00B0F0"/><stop offset="0.95" stop-color="#4472C4"/><stop offset="1" stop-color="#4472C4"/></linearGradient><linearGradient x1="907.074" y1="331.072" x2="900.973" y2="365.672" gradientUnits="userSpaceOnUse" spreadMethod="reflect" id="fill2"><stop offset="0" stop-color="#00B0F0"/><stop offset="0.95" stop-color="#4472C4"/><stop offset="1" stop-color="#4472C4"/></linearGradient><linearGradient x1="648.903" y1="402.339" x2="626.877" y2="527.253" gradientUnits="userSpaceOnUse" spreadMethod="reflect" id="fill3"><stop offset="0" stop-color="#00B0F0"/><stop offset="0.95" stop-color="#4472C4"/><stop offset="1" stop-color="#4472C4"/></linearGradient></defs><g clip-path="url(#clip0)" transform="translate(-352 -249)"><path d="M786.448 363.999C780.101 363.999 774.802 365.919 770.549 369.76 766.296 373.601 763.81 378.142 763.09 383.385L809.808 383.385C809.073 378.254 806.574 373.74 802.312 369.844 798.05 365.947 792.762 363.999 786.448 363.999ZM539.24 350.058 556.254 350.058 556.254 430.36 539.24 430.36ZM786.448 349.33C794.134 349.33 800.997 351.081 807.037 354.583 813.077 358.085 817.786 362.963 821.166 369.216 824.546 375.47 826.236 382.589 826.236 390.575 826.236 391.63 826.082 393.539 825.775 396.302L763.09 396.302C763.911 401.702 766.736 406.356 771.564 410.265 776.393 414.174 782.427 416.128 789.665 416.128 798.455 416.128 805.917 412.96 812.053 406.625L821.265 417.236C817.343 422.135 812.686 425.693 807.294 427.911 801.902 430.129 795.879 431.238 789.225 431.238 780.765 431.238 773.257 429.498 766.701 426.018 760.145 422.538 755.069 417.658 751.473 411.376 747.876 405.095 746.078 398.015 746.078 390.135 746.078 382.422 747.815 375.445 751.289 369.201 754.762 362.958 759.57 358.085 765.714 354.583 771.857 351.081 778.768 349.33 786.448 349.33ZM706.724 349.33C712.009 349.33 717.303 349.98 722.606 351.281 727.908 352.581 732.515 354.586 736.427 357.294L729.486 370.285C722.488 366.192 714.853 364.146 706.58 364.146 700.924 364.146 696.713 365.01 693.948 366.738 691.182 368.466 689.799 370.662 689.799 373.326 689.799 375.485 690.552 377.192 692.059 378.449 693.567 379.705 695.549 380.658 698.007 381.308 700.464 381.957 703.632 382.649 707.509 383.383 714.557 384.586 720.079 385.819 724.075 387.084 728.07 388.348 731.542 390.559 734.49 393.716 737.437 396.874 738.911 401.235 738.911 406.799 738.911 414.336 735.744 420.294 729.411 424.671 723.077 429.049 714.59 431.238 703.949 431.238 697.443 431.238 691.189 430.363 685.188 428.613 679.187 426.863 674.273 424.366 670.447 421.122L677.239 408.087C681.499 410.725 685.979 412.75 690.678 414.16 695.377 415.57 700.141 416.275 704.971 416.275 716.256 416.275 721.899 413.213 721.899 407.09 721.899 405.234 721.205 403.734 719.817 402.591 718.428 401.448 716.549 400.575 714.18 399.971 711.811 399.367 708.259 398.663 703.525 397.859 697.489 396.914 692.404 395.778 688.268 394.451 684.133 393.124 680.543 390.833 677.498 387.58 674.454 384.326 672.932 379.769 672.932 373.91 672.932 366.474 676.019 360.518 682.193 356.043 688.367 351.567 696.544 349.33 706.724 349.33ZM623.096 349.33C633.35 349.33 641.522 352.322 647.611 358.308 653.7 364.294 656.744 372.954 656.744 384.289L656.744 430.36 639.73 430.36 639.73 385.897C639.73 378.814 638.063 373.515 634.729 370.001 631.396 366.487 626.592 364.73 620.318 364.73 613.14 364.73 607.501 366.803 603.402 370.947 599.303 375.092 597.254 381.098 597.254 388.966L597.254 430.36 580.24 430.36 580.24 350.058 596.667 350.058 596.667 361.603C597.801 357.922 600.901 354.956 605.965 352.705 611.03 350.455 616.74 349.33 623.096 349.33ZM425.927 349.33C432.205 349.33 437.814 350.616 442.754 353.188 447.693 355.761 451.089 359.199 452.94 363.503 455.067 359.356 458.858 355.957 464.314 353.306 469.771 350.655 475.879 349.33 482.64 349.33 492.817 349.33 500.896 352.295 506.877 358.225 512.858 364.156 515.848 372.844 515.848 384.289L515.848 430.36 498.837 430.36 498.837 385.897C498.837 378.803 497.24 373.501 494.046 369.993 490.851 366.484 486.27 364.73 480.303 364.73 473.609 364.73 468.31 366.796 464.406 370.926 460.503 375.057 458.551 381.07 458.551 388.966L458.551 430.36 441.539 430.36 441.539 385.897C441.539 378.803 439.942 373.501 436.748 369.993 433.554 366.484 428.972 364.73 423.003 364.73 416.31 364.73 411.012 366.796 407.109 370.926 403.205 375.057 401.254 381.07 401.254 388.966L401.254 430.36 384.24 430.36 384.24 350.058 400.667 350.058 400.667 361.457C401.806 357.771 404.781 354.828 409.591 352.629 414.4 350.429 419.846 349.33 425.927 349.33ZM845.286 333.105 862.3 333.105 862.3 350.058 884.517 350.058 884.517 364.437 862.3 364.437 862.3 404.897C862.3 408.787 863.209 411.704 865.026 413.649 866.844 415.593 869.482 416.566 872.942 416.566 876.851 416.566 880.701 415.299 884.492 412.764L889.779 424.782C887.208 427.146 884.34 428.813 881.173 429.783 878.006 430.753 874.726 431.238 871.333 431.238 863.124 431.238 856.731 429 852.153 424.526 847.575 420.051 845.286 413.704 845.286 405.484L845.286 364.437 832.132 364.437 832.132 350.058 845.286 350.058ZM547.747 316.88C550.877 316.88 553.492 317.873 555.59 319.858 557.688 321.843 558.738 324.269 558.738 327.136 558.738 330.187 557.693 332.758 555.603 334.848 553.513 336.937 550.894 337.982 547.747 337.982 544.607 337.982 541.99 336.963 539.896 334.926 537.802 332.888 536.755 330.389 536.755 327.429 536.755 324.547 537.793 322.068 539.868 319.993 541.943 317.918 544.569 316.88 547.747 316.88Z" fill="url(#fill1)" fill-rule="evenodd"/><text fill="#000000" fill-opacity="0" font-family="Arial,Arial_MSFontService,sans-serif" font-size="114.357" x="384.24" y="416.943">minset </text><path d="M521.582 270.364 523.952 271.344 515.562 291.634 513.193 290.654Z" fill="#73C7F1" fill-rule="evenodd"/><path d="M528.778 266.662 530.016 264.417 575.357 289.407 574.12 291.652Z" fill="#73C7F1" fill-rule="evenodd"/><path d="M559.192 262.713 560.652 264.821 513.843 297.256 512.382 295.149Z" fill="#73C7F1" fill-rule="evenodd"/><path d="M523.16 297.811 522.931 295.257 544.799 293.296 545.028 295.849Z" fill="#3CB1EC" fill-rule="evenodd"/><path d="M558.991 269.69 561.361 270.67 552.971 290.96 550.602 289.98Z" fill="#73C7F1" fill-rule="evenodd"/><path d="M548.824 298.322 551.378 298.548 549.442 320.419 546.888 320.193Z" fill="#169CE2" fill-rule="evenodd"/><path d="M516.075 302.626 517.704 300.646 542.531 321.066 540.902 323.047Z" fill="#169CE2" fill-rule="evenodd"/><path d="M570.579 298.892 572.544 300.54 551.894 325.177 549.929 323.53Z" fill="#169CE2" fill-rule="evenodd"/><path d="M564.468 265.533 566.798 264.462 575.964 284.414 573.634 285.484Z" fill="#73C7F1" fill-rule="evenodd"/><path d="M514 263.5C514 257.149 519.149 252 525.5 252 531.851 252 537 257.149 537 263.5 537 269.851 531.851 275 525.5 275 519.149 275 514 269.851 514 263.5Z" fill="#73C7F1" fill-rule="evenodd"/><path d="M552 260.5C552 254.149 557.149 249 563.5 249 569.851 249 575 254.149 575 260.5 575 266.851 569.851 272 563.5 272 557.149 272 552 266.851 552 260.5Z" fill="#73C7F1" fill-rule="evenodd"/><path d="M501 297C501 290.373 506.149 285 512.5 285 518.851 285 524 290.373 524 297 524 303.627 518.851 309 512.5 309 506.149 309 501 303.627 501 297Z" fill="#38B0EC" fill-rule="evenodd"/><path d="M538 294.5C538 288.149 543.373 283 550 283 556.627 283 562 288.149 562 294.5 562 300.851 556.627 306 550 306 543.373 306 538 300.851 538 294.5Z" fill="#38B0EC" fill-rule="evenodd"/><path d="M566 292.5C566 286.149 571.149 281 577.5 281 583.851 281 589 286.149 589 292.5 589 298.851 583.851 304 577.5 304 571.149 304 566 298.851 566 292.5Z" fill="#38B0EC" fill-rule="evenodd"/><path d="M536 327.5C536 321.149 541.373 316 548 316 554.627 316 560 321.149 560 327.5 560 333.851 554.627 339 548 339 541.373 339 536 333.851 536 327.5Z" fill="#2092DB" fill-rule="evenodd"/><path d="M901.352 336.669 902.673 336.669 905.837 341.666 908.933 336.669 910.258 336.669 910.276 344.339 908.698 344.339 908.682 339.201 906.202 343.474 905.423 343.474 902.93 339.289 902.93 344.339 901.352 344.339ZM893.671 336.669 900.635 336.669 900.635 338.053 897.968 338.053 897.968 344.339 896.337 344.339 896.337 338.053 893.671 338.053Z" fill="url(#fill2)" fill-rule="evenodd"/><text fill="#000000" fill-opacity="0" font-family="Arial,Arial_MSFontService,sans-serif" font-size="7.67026" x="893.671" y="343.381">™</text><path d="M702.258 469.027C699.919 469.027 698.749 469.779 698.749 471.281 698.749 472.03 699.038 472.619 699.617 473.049 700.196 473.479 701.024 473.693 702.101 473.693 703.188 473.693 704.122 473.454 704.902 472.977 705.681 472.499 706.242 471.832 706.584 470.976L706.584 469.027ZM651.258 469.027C648.919 469.027 647.749 469.779 647.749 471.281 647.749 472.03 648.038 472.619 648.617 473.049 649.196 473.479 650.024 473.693 651.101 473.693 652.188 473.693 653.122 473.454 653.902 472.977 654.681 472.499 655.242 471.832 655.584 470.976L655.584 469.027ZM771.859 462.278C770.848 462.278 769.944 462.504 769.148 462.957 768.351 463.409 767.72 464.055 767.256 464.894 766.792 465.733 766.56 466.701 766.56 467.797 766.56 468.906 766.794 469.883 767.261 470.727 767.728 471.572 768.359 472.225 769.155 472.687 769.951 473.148 770.852 473.379 771.859 473.379 772.863 473.379 773.763 473.149 774.559 472.687 775.354 472.225 775.981 471.571 776.44 470.724 776.898 469.877 777.127 468.901 777.127 467.797 777.127 466.706 776.899 465.74 776.444 464.898 775.988 464.056 775.362 463.409 774.565 462.956 773.769 462.504 772.867 462.278 771.859 462.278ZM622.859 462.278C621.848 462.278 620.944 462.504 620.148 462.957 619.351 463.409 618.72 464.055 618.256 464.894 617.792 465.733 617.56 466.701 617.56 467.797 617.56 468.906 617.794 469.883 618.261 470.727 618.728 471.572 619.359 472.225 620.155 472.687 620.951 473.148 621.852 473.379 622.859 473.379 623.846 473.379 624.742 473.149 625.545 472.688 626.349 472.228 626.98 471.573 627.439 470.725 627.898 469.877 628.127 468.901 628.127 467.797 628.127 466.706 627.9 465.74 627.444 464.898 626.989 464.056 626.357 463.409 625.551 462.957 624.744 462.504 623.847 462.278 622.859 462.278ZM573.985 462.278C572.372 462.278 571.065 462.744 570.063 463.678 569.061 464.611 568.56 465.837 568.56 467.357 568.56 468.358 568.793 469.25 569.258 470.032 569.724 470.814 570.363 471.421 571.178 471.853 571.992 472.285 572.927 472.5 573.985 472.5 575.018 472.5 575.943 472.284 576.76 471.851 577.576 471.419 578.216 470.812 578.681 470.031 579.146 469.249 579.378 468.358 579.378 467.357 579.378 465.841 578.877 464.615 577.873 463.68 576.869 462.745 575.573 462.278 573.985 462.278ZM493.985 462.278C492.372 462.278 491.065 462.744 490.063 463.678 489.061 464.611 488.56 465.837 488.56 467.357 488.56 468.358 488.793 469.25 489.258 470.032 489.724 470.814 490.363 471.421 491.178 471.853 491.992 472.285 492.927 472.5 493.985 472.5 495.018 472.5 495.943 472.284 496.76 471.851 497.576 471.419 498.216 470.812 498.681 470.031 499.146 469.249 499.378 468.358 499.378 467.357 499.378 465.841 498.877 464.615 497.873 463.68 496.869 462.745 495.573 462.278 493.985 462.278ZM393.303 462.278C392.313 462.278 391.414 462.504 390.607 462.957 389.801 463.41 389.17 464.055 388.717 464.894 388.263 465.733 388.036 466.7 388.036 467.797 388.036 468.907 388.265 469.885 388.722 470.73 389.179 471.575 389.81 472.228 390.613 472.688 391.417 473.149 392.313 473.379 393.303 473.379 394.307 473.379 395.207 473.148 396.003 472.686 396.799 472.224 397.432 471.57 397.9 470.723 398.369 469.875 398.603 468.9 398.603 467.797 398.603 466.707 398.37 465.741 397.904 464.899 397.439 464.056 396.807 463.409 396.01 462.957 395.213 462.504 394.311 462.278 393.303 462.278ZM875.545 462.184C874.182 462.184 873.044 462.596 872.131 463.421 871.217 464.246 870.683 465.221 870.529 466.347L880.562 466.347C880.404 465.245 879.868 464.276 878.952 463.439 878.037 462.602 876.901 462.184 875.545 462.184ZM830.413 459.19 834.067 459.19 834.067 476.436 830.413 476.436ZM517.413 459.19 521.067 459.19 521.067 476.436 517.413 476.436ZM437.413 459.19 441.067 459.19 441.067 476.436 437.413 476.436ZM875.545 459.033C877.196 459.033 878.67 459.409 879.967 460.162 881.264 460.914 882.276 461.961 883.002 463.304 883.727 464.647 884.09 466.176 884.09 467.891 884.09 468.118 884.057 468.528 883.991 469.121L870.529 469.121C870.705 470.281 871.312 471.281 872.349 472.12 873.386 472.96 874.682 473.379 876.236 473.379 878.124 473.379 879.727 472.699 881.044 471.338L883.023 473.617C882.18 474.669 881.18 475.434 880.022 475.91 878.864 476.386 877.571 476.624 876.142 476.624 874.325 476.624 872.712 476.251 871.304 475.503 869.896 474.756 868.806 473.708 868.034 472.359 867.261 471.01 866.875 469.489 866.875 467.797 866.875 466.141 867.248 464.642 867.994 463.301 868.74 461.96 869.773 460.914 871.092 460.162 872.412 459.409 873.896 459.033 875.545 459.033ZM771.859 459.033C773.569 459.033 775.104 459.409 776.465 460.16 777.825 460.911 778.89 461.952 779.659 463.284 780.428 464.616 780.812 466.121 780.812 467.797 780.812 469.484 780.426 470.997 779.653 472.336 778.879 473.675 777.815 474.725 776.458 475.485 775.102 476.244 773.569 476.624 771.859 476.624 770.147 476.624 768.608 476.245 767.241 475.485 765.873 474.726 764.804 473.678 764.033 472.341 763.261 471.005 762.875 469.49 762.875 467.797 762.875 466.115 763.259 464.609 764.027 463.28 764.794 461.95 765.863 460.91 767.234 460.159 768.604 459.409 770.146 459.033 771.859 459.033ZM702.792 459.033C705.182 459.033 707.021 459.627 708.308 460.815 709.595 462.003 710.238 463.755 710.238 466.07L710.238 476.436 706.741 476.436 706.741 474.238C706.593 474.971 706.03 475.551 705.051 475.981 704.072 476.41 702.922 476.624 701.599 476.624 699.658 476.624 698.094 476.147 696.907 475.193 695.72 474.239 695.126 472.977 695.126 471.407 695.126 469.859 695.693 468.613 696.825 467.669 697.958 466.725 699.727 466.253 702.133 466.253L706.584 466.253 706.584 465.945C706.584 464.746 706.239 463.83 705.548 463.197 704.857 462.564 703.823 462.247 702.447 462.247 701.501 462.247 700.575 462.403 699.67 462.715 698.765 463.026 697.902 463.467 697.081 464.036L695.597 461.395C696.559 460.576 697.655 459.978 698.886 459.6 700.117 459.222 701.419 459.033 702.792 459.033ZM651.792 459.033C654.182 459.033 656.021 459.627 657.308 460.815 658.595 462.003 659.238 463.755 659.238 466.07L659.238 476.436 655.741 476.436 655.741 474.238C655.593 474.971 655.03 475.551 654.051 475.981 653.072 476.41 651.922 476.624 650.599 476.624 648.658 476.624 647.094 476.147 645.907 475.193 644.72 474.239 644.126 472.977 644.126 471.407 644.126 469.859 644.693 468.613 645.825 467.669 646.958 466.725 648.727 466.253 651.133 466.253L655.584 466.253 655.584 465.945C655.584 464.746 655.239 463.83 654.548 463.197 653.857 462.564 652.823 462.247 651.447 462.247 650.501 462.247 649.575 462.403 648.67 462.715 647.765 463.026 646.902 463.467 646.081 464.036L644.597 461.395C645.559 460.576 646.655 459.978 647.886 459.6 649.117 459.222 650.419 459.033 651.792 459.033ZM573.64 459.033C574.937 459.033 576.149 459.274 577.275 459.755 578.402 460.236 579.134 460.895 579.472 461.732L579.472 459.19 582.969 459.19 582.969 473.856C582.969 476.857 582.216 479.084 580.709 480.536 579.203 481.988 576.972 482.714 574.016 482.714 572.405 482.714 570.872 482.495 569.417 482.056 567.962 481.618 566.741 480.926 565.754 479.98L567.438 477.271C568.38 477.99 569.4 478.536 570.499 478.91 571.599 479.283 572.74 479.469 573.922 479.469 575.776 479.469 577.139 479.039 578.01 478.178 578.88 477.317 579.316 475.981 579.316 474.169L579.316 473.171C578.944 473.997 578.221 474.632 577.145 475.077 576.069 475.523 574.901 475.745 573.64 475.745 571.993 475.745 570.502 475.393 569.167 474.687 567.832 473.982 566.783 472.991 566.02 471.715 565.257 470.439 564.875 468.987 564.875 467.357 564.875 465.742 565.255 464.299 566.015 463.029 566.775 461.759 567.825 460.775 569.164 460.079 570.504 459.382 571.995 459.033 573.64 459.033ZM544.617 459.033C546.82 459.033 548.575 459.676 549.882 460.962 551.19 462.247 551.844 464.107 551.844 466.541L551.844 476.436 548.19 476.436 548.19 466.887C548.19 465.366 547.832 464.228 547.116 463.473 546.4 462.718 545.368 462.341 544.021 462.341 542.479 462.341 541.268 462.786 540.388 463.676 539.508 464.566 539.067 465.856 539.067 467.546L539.067 476.436 535.413 476.436 535.413 459.19 538.941 459.19 538.941 461.669C539.185 460.879 539.851 460.242 540.938 459.758 542.026 459.275 543.252 459.033 544.617 459.033ZM493.64 459.033C494.937 459.033 496.149 459.274 497.275 459.755 498.402 460.236 499.134 460.895 499.472 461.732L499.472 459.19 502.969 459.19 502.969 473.856C502.969 476.857 502.216 479.084 500.709 480.536 499.203 481.988 496.972 482.714 494.016 482.714 492.405 482.714 490.872 482.495 489.417 482.056 487.962 481.618 486.741 480.926 485.754 479.98L487.438 477.271C488.38 477.99 489.4 478.536 490.499 478.91 491.599 479.283 492.74 479.469 493.922 479.469 495.776 479.469 497.139 479.039 498.01 478.178 498.88 477.317 499.316 475.981 499.316 474.169L499.316 473.171C498.944 473.997 498.221 474.632 497.145 475.077 496.069 475.523 494.901 475.745 493.64 475.745 491.993 475.745 490.502 475.393 489.167 474.687 487.832 473.982 486.783 472.991 486.02 471.715 485.257 470.439 484.875 468.987 484.875 467.357 484.875 465.742 485.255 464.299 486.015 463.029 486.775 461.759 487.825 460.775 489.164 460.079 490.504 459.382 491.995 459.033 493.64 459.033ZM464.617 459.033C466.82 459.033 468.575 459.676 469.882 460.962 471.19 462.247 471.844 464.107 471.844 466.541L471.844 476.436 468.19 476.436 468.19 466.887C468.19 465.366 467.832 464.228 467.116 463.473 466.4 462.718 465.368 462.341 464.021 462.341 462.479 462.341 461.268 462.786 460.388 463.676 459.508 464.566 459.067 465.856 459.067 467.546L459.067 476.436 455.413 476.436 455.413 459.19 458.941 459.19 458.941 461.669C459.185 460.879 459.851 460.242 460.938 459.758 462.026 459.275 463.252 459.033 464.617 459.033ZM425 459.033 425 462.56C424.593 462.54 424.256 462.529 423.99 462.529 422.45 462.529 421.244 462.984 420.374 463.895 419.503 464.805 419.067 466.116 419.067 467.828L419.067 476.436 415.413 476.436 415.413 459.19 418.941 459.19 418.941 461.952C419.087 461.065 419.701 460.356 420.781 459.827 421.862 459.298 423.268 459.033 425 459.033ZM742.853 455.549 746.507 455.549 746.507 459.19 751.278 459.19 751.278 462.278 746.507 462.278 746.507 470.967C746.507 471.803 746.702 472.429 747.092 472.847 747.483 473.265 748.049 473.473 748.792 473.473 749.632 473.473 750.459 473.201 751.273 472.657L752.408 475.238C751.856 475.746 751.24 476.104 750.56 476.312 749.88 476.52 749.175 476.624 748.447 476.624 746.684 476.624 745.311 476.144 744.328 475.183 743.344 474.222 742.853 472.859 742.853 471.093L742.853 462.278 740.028 462.278 740.028 459.19 742.853 459.19ZM674.853 455.549 678.507 455.549 678.507 459.19 683.278 459.19 683.278 462.278 678.507 462.278 678.507 470.967C678.507 471.803 678.702 472.429 679.092 472.847 679.483 473.265 680.049 473.473 680.792 473.473 681.632 473.473 682.459 473.201 683.273 472.657L684.408 475.238C683.856 475.746 683.24 476.104 682.56 476.312 681.88 476.52 681.175 476.624 680.447 476.624 678.684 476.624 677.311 476.144 676.328 475.183 675.344 474.222 674.853 472.859 674.853 471.093L674.853 462.278 672.028 462.278 672.028 459.19 674.853 459.19ZM811.413 452.535 815.067 452.535 815.067 476.436 811.413 476.436ZM628.096 452.535 631.749 452.535 631.749 476.436 628.221 476.436 628.221 473.799C627.903 474.677 627.208 475.368 626.138 475.87 625.067 476.373 623.891 476.624 622.608 476.624 620.938 476.624 619.44 476.255 618.114 475.515 616.788 474.776 615.75 473.738 615 472.402 614.25 471.066 613.875 469.531 613.875 467.797 613.875 466.077 614.249 464.557 614.995 463.237 615.742 461.916 616.78 460.886 618.11 460.145 619.44 459.404 620.939 459.033 622.608 459.033 623.848 459.033 624.993 459.269 626.043 459.739 627.094 460.209 627.778 460.853 628.096 461.669ZM384.413 452.535 388.067 452.535 388.067 461.669C388.382 460.853 389.064 460.21 390.115 459.739 391.165 459.269 392.312 459.033 393.555 459.033 395.221 459.033 396.719 459.404 398.049 460.145 399.378 460.886 400.417 461.918 401.165 463.241 401.914 464.564 402.288 466.083 402.288 467.797 402.288 469.525 401.912 471.058 401.161 472.398 400.409 473.737 399.37 474.776 398.044 475.516 396.718 476.255 395.222 476.624 393.555 476.624 392.269 476.624 391.091 476.373 390.02 475.87 388.95 475.368 388.257 474.677 387.941 473.799L387.941 476.436 384.413 476.436ZM854.667 452.347C855.361 452.347 856.022 452.436 856.648 452.615 857.274 452.794 857.85 453.095 858.377 453.519L857.285 456.219C856.425 455.696 855.605 455.435 854.823 455.435 853.237 455.435 852.444 456.301 852.444 458.034L852.444 459.19 857.278 459.19 857.278 462.278 852.507 462.278 852.507 476.436 848.853 476.436 848.853 462.278 846.028 462.278 846.028 459.19 848.853 459.19 848.853 458.003C848.853 456.275 849.363 454.9 850.385 453.879 851.406 452.857 852.833 452.347 854.667 452.347ZM832.24 452.064C832.913 452.064 833.474 452.278 833.925 452.704 834.375 453.13 834.601 453.651 834.601 454.267 834.601 454.922 834.376 455.474 833.928 455.923 833.479 456.372 832.916 456.596 832.24 456.596 831.566 456.596 831.004 456.378 830.554 455.94 830.105 455.502 829.88 454.966 829.88 454.33 829.88 453.711 830.103 453.179 830.548 452.733 830.994 452.287 831.558 452.064 832.24 452.064ZM519.24 452.064C519.913 452.064 520.474 452.278 520.925 452.704 521.375 453.13 521.601 453.651 521.601 454.267 521.601 454.922 521.376 455.474 520.928 455.923 520.479 456.372 519.916 456.596 519.24 456.596 518.566 456.596 518.004 456.378 517.554 455.94 517.105 455.502 516.88 454.966 516.88 454.33 516.88 453.711 517.103 453.179 517.548 452.733 517.994 452.287 518.558 452.064 519.24 452.064ZM439.24 452.064C439.913 452.064 440.474 452.278 440.925 452.704 441.376 453.13 441.601 453.651 441.601 454.267 441.601 454.922 441.376 455.474 440.928 455.923 440.479 456.372 439.916 456.596 439.24 456.596 438.566 456.596 438.004 456.378 437.554 455.94 437.105 455.502 436.88 454.966 436.88 454.33 436.88 453.711 437.103 453.179 437.548 452.733 437.994 452.287 438.558 452.064 439.24 452.064Z" fill="url(#fill3)" fill-rule="evenodd"/><text fill="#000000" fill-opacity="0" font-family="Arial,Arial_MSFontService,sans-serif" font-size="30.65" x="384.413" y="478.883">bringing data to life</text></g></svg>